<svg aria-hidden="true" style="position: absolute; width: 0; height: 0; overflow: hidden;" version="1.1" xmlns="http://www.w3.org/2000/svg" xmlns:xlink="http://www.w3.org/1999/xlink">
<defs>
<symbol id="icon-search" viewBox="0 0 32 32">
<path d="M24.041 22.156l5.711 5.709-1.887 1.887-5.709-5.711c-2.027 1.636-4.634 2.625-7.472 2.625-0.006 0-0.012 0-0.018 0h0.001c-6.624 0-12-5.376-12-12s5.376-12 12-12 12 5.376 12 12c0 0.005 0 0.011 0 0.017 0 2.838-0.99 5.446-2.643 7.495l0.018-0.023zM21.367 21.167c1.629-1.674 2.633-3.962 2.633-6.485 0-0.005 0-0.010 0-0.015v0.001c0-5.157-4.177-9.333-9.333-9.333-5.157 0-9.333 4.176-9.333 9.333 0 5.156 4.176 9.333 9.333 9.333 0.004 0 0.009 0 0.015 0 2.523 0 4.812-1.005 6.487-2.635l-0.002 0.002 0.2-0.2z"></path>
</symbol>
<symbol id="icon-star" viewBox="0 0 32 32">
<path  d="M15.261 2.576c0.273-0.657 1.204-0.657 1.477 0l3.306 7.948c0.115 0.277 0.376 0.466 0.675 0.49l8.58 0.688c0.709 0.057 0.997 0.942 0.456 1.405l-6.537 5.6c-0.228 0.195-0.327 0.501-0.258 0.793l1.997 8.373c0.165 0.692-0.588 1.239-1.195 0.868l-7.346-4.487c-0.256-0.156-0.578-0.156-0.834 0l-7.346 4.487c-0.607 0.371-1.36-0.176-1.195-0.868l1.997-8.373c0.070-0.292-0.030-0.598-0.258-0.793l-6.537-5.6c-0.54-0.463-0.253-1.348 0.457-1.405l8.581-0.688c0.299-0.024 0.56-0.213 0.675-0.49l3.306-7.948z"></path>
<path  d="M15.261 2.576c0.273-0.657 1.204-0.657 1.477 0l3.306 7.948c0.115 0.277 0.376 0.466 0.675 0.49l8.58 0.688c0.709 0.057 0.997 0.942 0.456 1.405l-6.537 5.6c-0.228 0.195-0.327 0.501-0.258 0.793l1.997 8.373c0.165 0.692-0.588 1.239-1.195 0.868l-7.346-4.487c-0.256-0.156-0.578-0.156-0.834 0l-7.346 4.487c-0.607 0.371-1.36-0.176-1.195-0.868l1.997-8.373c0.070-0.292-0.030-0.598-0.258-0.793l-6.537-5.6c-0.54-0.463-0.253-1.348 0.457-1.405l8.581-0.688c0.299-0.024 0.56-0.213 0.675-0.49l3.306-7.948z"></path>
</symbol>
<symbol id="icon-close" viewBox="0 0 32 32">
<path d="M25.333 8.533l-1.867-1.867-7.467 7.467-7.467-7.467-1.867 1.867 7.467 7.467-7.467 7.467 1.867 1.867 7.467-7.467 7.467 7.467 1.867-1.867-7.467-7.467 7.467-7.467z"></path>
</symbol>
<symbol id="icon-error-round" viewBox="0 0 32 32">
<path d="M16 29.333c-7.364 0-13.333-5.969-13.333-13.333s5.969-13.333 13.333-13.333 13.333 5.969 13.333 13.333-5.969 13.333-13.333 13.333zM16 26.667c5.891 0 10.667-4.776 10.667-10.667s-4.776-10.667-10.667-10.667v0c-5.891 0-10.667 4.776-10.667 10.667s4.776 10.667 10.667 10.667v0zM14.667 20h2.667v2.667h-2.667v-2.667zM14.667 9.333h2.667v8h-2.667v-8z"></path>
</symbol>
<symbol id="icon-information" viewBox="0 0 32 32">
<path d="M16 29.333c-7.364 0-13.333-5.969-13.333-13.333s5.969-13.333 13.333-13.333 13.333 5.969 13.333 13.333-5.969 13.333-13.333 13.333zM16 26.667c5.891 0 10.667-4.776 10.667-10.667s-4.776-10.667-10.667-10.667v0c-5.891 0-10.667 4.776-10.667 10.667s4.776 10.667 10.667 10.667v0zM14.667 9.333h2.667v2.667h-2.667v-2.667zM14.667 14.667h2.667v8h-2.667v-8z"></path>
</symbol>
</defs>
</svg>
